<?xml version="1.0" encoding="utf-8"?>
<!-- Generator: Adobe Illustrator 15.0.0, SVG Export Plug-In . SVG Version: 6.00 Build 0)  -->
<!DOCTYPE svg PUBLIC "-//W3C//DTD SVG 1.1//EN" "http://www.w3.org/Graphics/SVG/1.1/DTD/svg11.dtd">
<svg version="1.1" id="图层_1" xmlns="http://www.w3.org/2000/svg" xmlns:xlink="http://www.w3.org/1999/xlink" x="0px" y="0px"
	 width="50px" height="50px" viewBox="0 0 50 50" enable-background="new 0 0 50 50" xml:space="preserve">
<g>
	<path fill="#323333" d="M38.172,37.372c-6.104-2.5-8.055-4.605-8.055-9.12c0-2.71,1.863-1.825,2.682-6.787
		c0.342-2.058,1.986-0.032,2.301-4.732c0-1.873-0.896-2.338-0.896-2.338s0.455-2.772,0.633-4.904
		C35.059,6.833,33.473-0.033,25-0.033c-8.47,0-10.059,6.866-9.838,9.523c0.18,2.132,0.636,4.904,0.636,4.904
		S14.9,14.859,14.9,16.732c0.315,4.7,1.96,2.675,2.299,4.732c0.82,4.962,2.682,4.077,2.682,6.787c0,4.515-1.95,6.62-8.053,9.12
		c-6.123,2.506-10.1,5.062-10.1,6.806c0,1.742,0,5.855,0,5.855H25h23.271c0,0,0-4.113,0-5.855
		C48.271,42.435,44.295,39.878,38.172,37.372z"/>
</g>
</svg>
